<svg width="35" height="36" viewBox="0 0 35 36" fill="none" xmlns="http://www.w3.org/2000/svg">
<path d="M24.0392 17.9649L33.0094 10.1716V25.6693L24.0392 17.9649ZM12.4804 19.2847L15.6304 22.0191C16.1248 22.4391 16.7694 22.6928 17.4738 22.6928H17.4985H17.5175C18.2233 22.6928 18.8679 22.4376 19.3681 22.0147L19.3638 22.0176L22.5138 19.2833L32.0892 27.5068H2.90938L12.4804 19.2847ZM2.89625 8.32388H32.1067L18.076 20.5097C17.9183 20.6345 17.723 20.7023 17.5219 20.7022H17.5015H17.4825C17.2807 20.7025 17.0847 20.6341 16.9269 20.5083L16.9283 20.5097L2.89625 8.32388ZM1.99063 10.1701L10.9594 17.9635L1.99063 25.6635V10.1701ZM33.4906 6.61034C33.1406 6.43534 32.7294 6.33325 32.2933 6.33325H2.71104C2.28836 6.33335 1.87149 6.4317 1.49333 6.62054L1.50937 6.61325C1.05667 6.83654 0.675424 7.18197 0.408704 7.61053C0.141984 8.03908 0.00041905 8.53368 0 9.03846L0 26.7893C0.000772047 27.5077 0.286493 28.1964 0.794471 28.7044C1.30245 29.2124 1.99119 29.4981 2.70958 29.4989H32.289C33.0074 29.4981 33.6961 29.2124 34.2041 28.7044C34.7121 28.1964 34.9978 27.5077 34.9985 26.7893V9.03846C34.9985 7.97825 34.3875 7.0595 33.4979 6.61763L33.4819 6.61034H33.4906Z" fill="black"/>
</svg>
