<svg width="39" height="39" viewBox="0 0 39 39" fill="none" xmlns="http://www.w3.org/2000/svg">
<path d="M19.5 37C24.1413 37 28.5925 35.1563 31.8744 31.8744C35.1563 28.5925 37 24.1413 37 19.5C37 14.8587 35.1563 10.4075 31.8744 7.12563C28.5925 3.84374 24.1413 2 19.5 2C14.8587 2 10.4075 3.84374 7.12563 7.12563C3.84374 10.4075 2 14.8587 2 19.5C2 24.1413 3.84374 28.5925 7.12563 31.8744C10.4075 35.1563 14.8587 37 19.5 37Z" stroke="black" stroke-width="2.69231" stroke-linecap="round" stroke-linejoin="round"/>
<path d="M20.8459 28.9231L26.2305 12.7693L10.0767 18.1539L16.8074 22.1924L20.8459 28.9231Z" stroke="black" stroke-width="2.69231" stroke-linecap="round" stroke-linejoin="round"/>
</svg>
