<svg width="296" height="296" viewBox="0 0 296 296" fill="none" xmlns="http://www.w3.org/2000/svg">
<path d="M148 293C228.081 293 293 228.081 293 148C293 67.9187 228.081 3 148 3C67.9187 3 3 67.9187 3 148C3 228.081 67.9187 293 148 293Z" fill="#1E120C" stroke="url(#paint0_linear_73_193)" stroke-width="5.24887" stroke-miterlimit="10"/>
<path d="M148 275.705C218.298 275.705 275.285 218.718 275.285 148.42C275.285 78.1227 218.298 21.1353 148 21.1353C77.7025 21.1353 20.7151 78.1227 20.7151 148.42C20.7151 218.718 77.7025 275.705 148 275.705Z" stroke="url(#paint1_linear_73_193)" stroke-width="1.31222" stroke-miterlimit="10"/>
<path d="M147.998 277.542C219.455 277.542 277.383 219.614 277.383 148.157C277.383 76.6997 219.455 18.7723 147.998 18.7723C76.5408 18.7723 18.6133 76.6997 18.6133 148.157C18.6133 219.614 76.5408 277.542 147.998 277.542Z" stroke="url(#paint2_linear_73_193)" stroke-width="1.31222" stroke-miterlimit="10"/>
<path d="M147.999 279.22C220.457 279.22 279.195 220.482 279.195 148.025C279.195 75.5677 220.457 16.8295 147.999 16.8295C75.5422 16.8295 16.804 75.5677 16.804 148.025C16.804 220.482 75.5422 279.22 147.999 279.22Z" stroke="url(#paint3_linear_73_193)" stroke-width="1.31222" stroke-miterlimit="10"/>
<path d="M148 273.393C217.022 273.393 272.975 217.44 272.975 148.417C272.975 79.3954 217.022 23.4419 148 23.4419C78.9776 23.4419 23.0242 79.3954 23.0242 148.417C23.0242 217.44 78.9776 273.393 148 273.393Z" stroke="url(#paint4_linear_73_193)" stroke-width="1.31222" stroke-miterlimit="10"/>
<path d="M147.999 207.94C179.872 207.94 205.711 182.102 205.711 150.229C205.711 118.356 179.872 92.5179 147.999 92.5179C116.126 92.5179 90.2881 118.356 90.2881 150.229C90.2881 182.102 116.126 207.94 147.999 207.94Z" stroke="url(#paint5_linear_73_193)" stroke-width="1.96833" stroke-miterlimit="10"/>
<path d="M147.998 204.949C178.146 204.949 202.586 180.509 202.586 150.361C202.586 120.213 178.146 95.7727 147.998 95.7727C117.85 95.7727 93.4097 120.213 93.4097 150.361C93.4097 180.509 117.85 204.949 147.998 204.949Z" stroke="url(#paint6_linear_73_193)" stroke-width="1.96833" stroke-miterlimit="10"/>
<path d="M147.999 220.432C187.293 220.432 219.147 188.577 219.147 149.283C219.147 109.989 187.293 78.1347 147.999 78.1347C108.705 78.1347 76.8506 109.989 76.8506 149.283C76.8506 188.577 108.705 220.432 147.999 220.432Z" stroke="url(#paint7_linear_73_193)" stroke-width="0.656109" stroke-miterlimit="10"/>
<path d="M147.999 218.909C186.322 218.909 217.389 187.842 217.389 149.519C217.389 111.196 186.322 80.1288 147.999 80.1288C109.676 80.1288 78.6089 111.196 78.6089 149.519C78.6089 187.842 109.676 218.909 147.999 218.909Z" stroke="url(#paint8_linear_73_193)" stroke-width="0.656109" stroke-miterlimit="10"/>
<path d="M103.279 71.94C104.696 74.1182 105.405 76.3228 105.431 78.5535C105.484 80.8893 104.749 83.0676 103.279 85.0884C102.282 86.4793 100.445 88.0015 97.794 89.7336C97.7678 89.7599 97.5578 89.8911 97.1642 90.1273C96.7705 90.3635 96.2194 90.7309 95.5108 91.2033L94.4873 91.8594C94.461 91.8857 93.8311 92.2793 92.6239 93.0667L90.813 94.2214C90.5244 94.4051 90.3406 94.4314 90.2357 94.2739C90.1044 94.0902 90.3144 93.8277 90.8655 93.4866C91.7053 92.9879 92.099 92.5155 92.0728 92.0956C92.0728 91.9119 91.7316 91.3083 91.0493 90.2848L81.6538 75.6929C81.1026 74.8531 80.7352 74.3807 80.4728 74.2495C80.0529 74.0395 79.4755 74.1707 78.6881 74.6956C78.2682 74.9843 78.0058 75.0368 77.8746 74.8268C77.7696 74.6431 77.8483 74.4857 78.1108 74.302L78.6357 73.9608C79.7904 73.2259 80.8927 72.5173 81.9687 71.835C83.5171 70.8639 84.6981 70.1029 85.5379 69.578C89.0284 67.3472 92.1515 66.3237 94.9334 66.5599C98.3977 66.901 101.18 68.6857 103.279 71.94ZM98.3189 75.1418C96.2719 71.9925 94.3298 69.9716 92.4402 69.1056C90.5506 68.2395 88.6085 68.4495 86.6139 69.7617C85.8791 70.2341 85.4592 70.6277 85.328 70.9164C85.1443 71.3101 85.2755 71.8612 85.7479 72.5698L95.2221 87.2667C96.0357 88.5264 96.5605 89.1825 96.7967 89.2087C97.1642 89.2612 97.7416 89.0513 98.5289 88.5526C102.492 85.9807 102.413 81.5191 98.3189 75.1418Z" fill="url(#paint9_linear_73_193)"/>
<path d="M125.981 70.1816C126.007 70.2341 126.322 71.2314 126.978 73.1997C127.319 74.2495 127.555 74.9844 127.713 75.4305C127.87 75.8767 127.923 76.1129 127.923 76.0866C122.149 77.7925 117.162 79.4459 112.963 81.0206L110.26 81.9654C109.867 82.0966 109.657 82.0966 109.604 81.9129C109.552 81.7816 109.578 81.7029 109.683 81.6504C109.788 81.5979 110.103 81.4405 110.628 81.2043C111.625 80.7844 112.071 80.312 111.966 79.7608C111.914 79.4721 111.835 79.1572 111.704 78.816L106.035 62.492C105.589 61.2061 105.326 60.4975 105.274 60.3663C105.143 60.0251 104.933 59.8414 104.696 59.7626C104.46 59.7101 104.04 59.7626 103.437 59.9726C102.781 60.2088 102.413 60.235 102.334 60.0251C102.256 59.8151 102.518 59.6052 103.122 59.3952C103.725 59.1853 104.539 58.8966 105.589 58.5029C109.525 57.0332 112.727 55.9047 115.273 55.0649L117.451 54.3038C117.924 54.1463 118.501 53.9101 119.157 53.5952L120.679 57.007C121.178 58.083 121.467 58.7654 121.545 59.0016C121.624 59.2115 121.545 59.369 121.335 59.4477C121.125 59.5264 120.889 59.2902 120.627 58.7654C119.918 57.3482 118.947 56.4821 117.714 56.1409C116.48 55.7997 114.879 55.9834 112.911 56.6658C112.307 56.8758 111.284 57.2694 109.84 57.8468L113.147 67.3473C115.535 66.5337 116.979 65.8513 117.451 65.3002C117.95 64.7228 118.029 63.673 117.74 62.1246C117.582 61.2848 117.609 60.8387 117.819 60.7599C118.002 60.6812 118.186 60.8649 118.317 61.2323C118.448 61.626 118.685 62.4133 119.052 63.6468C119.183 64.0667 119.341 64.6178 119.603 65.3002C120.233 67.1373 120.758 68.5282 121.125 69.473C121.178 69.6043 121.257 69.7617 121.335 69.9454C121.414 70.2079 121.362 70.3653 121.178 70.4441C121.02 70.4966 120.915 70.4703 120.837 70.3916C120.758 70.3129 120.574 69.9717 120.286 69.4206C119.551 67.9771 118.921 67.1111 118.396 66.8749C117.897 66.6387 116.953 66.7436 115.588 67.216L113.331 68.0296L117.084 78.8685L119.157 78.1599C121.519 77.2939 122.936 76.7427 123.435 76.5065C124.038 76.1916 124.59 75.7454 125.062 75.1418C125.456 74.5382 125.666 73.9346 125.692 73.3572C125.718 72.7798 125.639 71.8088 125.403 70.3916C125.351 70.0504 125.403 69.8405 125.561 69.788C125.718 69.7092 125.876 69.8405 125.981 70.1816Z" fill="url(#paint10_linear_73_193)"/>
<path d="M145.847 67.8197C145.9 68.2396 145.926 68.607 145.952 68.8957C145.979 69.893 146.057 70.7065 146.136 71.3102L146.451 73.6984C143.538 73.9346 138.315 74.512 130.757 75.4568L129.34 75.6405C128.342 75.7717 127.844 75.7192 127.818 75.5355C127.791 75.3518 127.949 75.2206 128.264 75.1943C129.392 75.0369 130.101 74.8007 130.363 74.4595C130.547 74.2495 130.573 73.6984 130.468 72.8061L128.237 54.4875C128.133 53.7265 128.028 53.2541 127.844 53.0966C127.529 52.7817 127.083 52.6767 126.505 52.7817L125.639 52.8866C125.377 52.9129 125.246 52.8604 125.219 52.6767C125.193 52.5192 125.351 52.4142 125.666 52.3618C125.849 52.3355 126.033 52.3093 126.217 52.283L134.825 51.2332C134.93 51.207 135.061 51.207 135.192 51.1808C135.428 51.1545 135.533 51.2332 135.56 51.417C135.586 51.6269 135.297 51.7581 134.72 51.8369C133.88 51.9418 133.408 52.0993 133.276 52.3355C133.145 52.5455 133.198 53.464 133.381 55.0387L134.379 63.0957C134.589 64.7491 135.087 68.4233 135.875 74.1446C136.294 74.1183 136.793 74.0658 137.344 73.9871C139.706 73.6984 141.333 73.4097 142.226 73.121C143.617 72.6486 144.483 71.8088 144.876 70.6016C145.086 69.9717 145.218 69.0269 145.27 67.6884C145.296 67.321 145.375 67.1373 145.506 67.1111C145.664 67.0848 145.769 67.321 145.847 67.8197Z" fill="url(#paint11_linear_73_193)"/>
<path d="M156.975 74.0659C156.975 74.2496 156.818 74.3545 156.529 74.3283C156.372 74.3283 156.214 74.3021 156.083 74.2758C154.718 74.1446 153.563 74.0659 152.566 74.0396C151.543 73.9871 150.047 73.9609 148.052 73.9609C147.396 73.9609 146.897 73.9609 146.582 73.9346C146.241 73.9084 146.084 73.8034 146.084 73.6197C146.084 73.5147 146.162 73.436 146.267 73.4097C146.372 73.3835 146.819 73.3835 147.58 73.3835C148.288 73.2785 148.708 73.0686 148.839 72.8061C148.971 72.5437 149.049 71.6251 149.128 70.0767L149.784 53.674C149.81 53.2541 149.81 52.8079 149.837 52.4143C149.837 51.9944 149.837 51.8107 149.837 51.8369C149.863 51.2595 149.312 50.9708 148.157 50.9183C147.527 50.8921 147.212 50.8134 147.212 50.6297C147.212 50.4722 147.265 50.3935 147.37 50.3672C147.448 50.341 147.763 50.341 148.262 50.3672C148.026 50.3672 148.446 50.3672 149.496 50.4197C150.545 50.4722 151.438 50.4984 152.199 50.5247L153.931 50.6034C154.298 50.6297 154.823 50.6297 155.479 50.6559C156.135 50.6822 156.608 50.7084 156.896 50.7084L157.238 50.7346C157.526 50.7346 157.684 50.8396 157.684 50.9971C157.684 51.1283 157.631 51.207 157.526 51.2333C157.421 51.2595 157.08 51.2858 156.476 51.2858C155.768 51.312 155.322 51.4432 155.164 51.6794L155.033 52.3355L154.272 71.5726C154.219 72.5437 154.324 73.1211 154.534 73.331C154.744 73.5147 155.479 73.6722 156.713 73.8034C156.896 73.8034 156.975 73.9084 156.975 74.0659Z" fill="url(#paint12_linear_73_193)"/>
<path d="M180.595 71.6512C180.542 71.8612 180.122 71.8612 179.283 71.6512C178.285 71.415 177.734 71.52 177.551 71.9662C177.446 72.2286 177.236 73.0947 176.894 74.5644C176.789 75.063 176.684 75.5354 176.58 75.9291C173.535 77.1363 170.806 77.4512 168.418 76.9001C165.268 76.1915 162.88 74.4856 161.253 71.7825C159.626 69.0793 159.206 66.0874 159.941 62.7806C160.728 59.2639 162.46 56.6132 165.163 54.7499C167.866 52.9128 170.858 52.3616 174.139 53.0965C175.504 53.4114 176.816 54.0413 178.102 55.0386C178.574 55.406 178.915 55.6159 179.125 55.6422C179.466 55.7209 179.834 55.511 180.201 55.0386C180.359 54.8024 180.516 54.6974 180.647 54.7236C180.805 54.7499 180.857 54.8811 180.805 55.1173C180.805 55.1698 180.674 55.5897 180.411 56.4295C180.332 56.692 180.175 57.3218 179.939 58.3191C179.781 59.0802 179.545 60.235 179.283 61.8096C179.178 62.2295 179.02 62.4132 178.81 62.3607C178.495 62.282 178.39 61.8096 178.469 60.8911C178.653 58.8702 178.338 57.1906 177.577 55.8259C176.999 54.8286 176.055 54.1987 174.69 53.8838C170.491 52.939 167.551 56.1933 165.872 63.6467C164.822 68.292 164.796 71.6775 165.767 73.8033C166.37 75.1417 167.394 75.9816 168.864 76.3227C170.701 76.7426 171.856 75.7978 172.38 73.4883C172.774 71.7562 172.905 70.7589 172.827 70.5227C172.748 70.2865 172.38 70.0766 171.777 69.9454L170.937 69.7616C170.465 69.6567 170.255 69.4992 170.307 69.3155C170.36 69.1055 170.57 69.053 170.937 69.1318C171.724 69.3155 172.695 69.5254 173.85 69.8141L175.976 70.2865C176.396 70.3915 177.078 70.5227 177.997 70.7327C178.915 70.9426 179.519 71.0739 179.781 71.1264L180.227 71.2313C180.516 71.3363 180.647 71.4675 180.595 71.6512Z" fill="url(#paint13_linear_73_193)"/>
<path d="M199.333 89.445C199.281 89.5762 199.15 89.5762 198.966 89.4975C198.835 89.4187 198.703 89.34 198.572 89.2613C197.916 88.8151 195.948 87.7391 192.693 86.0594C192.379 85.902 191.932 85.6658 191.303 85.3509L190.358 84.8785C189.728 84.5635 189.465 84.3273 189.544 84.1436C189.623 83.9599 189.938 84.0124 190.463 84.2486C190.909 84.4585 191.355 84.5635 191.775 84.5898C192.195 84.616 192.431 84.511 192.536 84.3273C192.615 84.2223 192.798 83.8812 193.113 83.3563L193.901 81.8341L197.522 74.8269L191.355 71.6513C190.988 71.4676 190.646 71.2839 190.305 71.1002L185.476 80.4694C185.214 80.9943 185.476 81.5192 186.211 82.0441C186.788 82.4377 187.13 82.7002 187.208 82.7789C187.287 82.8576 187.313 82.9626 187.261 83.0414C187.208 83.1726 187.051 83.1726 186.867 83.0676C186.605 82.9364 185.922 82.5427 184.794 81.9391C183.692 81.3092 183.219 81.0468 183.403 81.1518C183.272 81.0993 182.642 80.7843 181.513 80.2595C180.359 79.7083 179.283 79.1834 178.285 78.6848L177.97 78.5273C177.603 78.3436 177.472 78.1599 177.577 77.9762C177.655 77.8187 177.839 77.8187 178.128 77.9499C179.073 78.4486 179.808 78.6585 180.28 78.6061C180.49 78.5798 180.857 78.1074 181.356 77.1364L189.964 60.4187C190.305 59.7626 190.331 59.2902 190.043 58.9753C189.754 58.6604 189.229 58.2929 188.442 57.8993C188.179 57.768 188.074 57.6106 188.153 57.4531C188.206 57.3481 188.337 57.3481 188.573 57.4531C188.494 57.4006 189.255 57.7943 190.856 58.6341L194.636 60.5762C195.397 60.9699 196.184 61.3635 196.945 61.7572C197.286 61.9409 197.496 62.0459 197.549 62.0721C197.837 62.2296 197.916 62.3871 197.811 62.597C197.732 62.7282 197.627 62.807 197.522 62.7807C197.391 62.7545 197.05 62.597 196.473 62.3346C195.895 62.0721 195.475 61.9934 195.213 62.1771C194.951 62.3608 194.662 62.7282 194.347 63.3318L190.673 70.4966L191.381 70.864C193.35 71.9662 195.528 73.0685 197.916 74.1445L201.407 67.3472C202.115 65.9563 201.984 65.0115 200.987 64.5128C200.331 64.1717 200.042 63.9092 200.121 63.7255C200.199 63.5681 200.383 63.5418 200.646 63.673L200.934 63.8305C201.249 63.988 201.826 64.2766 202.64 64.6966C203.454 65.1165 204.346 65.5626 205.317 66.0613L207.6 67.2423L209.831 68.397C210.041 68.502 210.093 68.607 210.041 68.7382C209.962 68.8694 209.542 68.7907 208.755 68.4757C207.968 68.1608 207.443 68.0558 207.128 68.2133C206.813 68.3708 206.393 68.9481 205.868 69.9717L198.205 84.8785C197.522 86.1907 197.286 87.0567 197.47 87.5029C197.654 87.949 198.152 88.3952 198.94 88.8676C199.307 88.9988 199.438 89.235 199.333 89.445Z" fill="url(#paint14_linear_73_193)"/>
<path d="M224.685 89.1563C224.58 89.2876 224.449 89.3138 224.318 89.2088C224.134 89.0514 224.239 88.5527 224.659 87.7654C225.473 86.1907 225.814 84.931 225.683 83.96C225.551 83.0152 224.869 82.0179 223.662 80.9681C223.189 80.5744 222.796 80.207 222.455 79.9183L208.886 95.5862C208.519 96.0324 208.414 96.3998 208.545 96.7147C208.676 97.0296 209.175 97.6595 210.094 98.6043C210.277 98.788 210.303 98.9455 210.172 99.0767C210.015 99.2604 209.805 99.2079 209.542 98.9717C209.49 98.9192 209.359 98.8143 209.175 98.6043C208.939 98.3681 208.729 98.1581 208.545 98.0269L205.947 95.6387L201.459 91.9645C201.223 91.7545 201.17 91.5708 201.275 91.4396C201.354 91.3346 201.459 91.3084 201.538 91.3609C201.617 91.4134 201.932 91.6233 202.43 92.0432C203.401 92.8306 204.11 93.0405 204.53 92.6993C204.766 92.5156 206.288 90.7572 209.122 87.5029L218.597 76.5591C218.413 76.4016 218.177 76.1916 217.914 75.9817C216.55 74.8007 215.316 74.1708 214.266 74.1446C213.19 74.0921 212.009 74.6432 210.723 75.7717C209.962 76.4278 209.464 76.664 209.28 76.5066C209.123 76.3753 209.149 76.1916 209.306 76.0079C209.437 75.8767 209.857 75.4305 210.645 74.6695C212.246 73.0948 213.322 72.0188 213.899 71.4414L214.293 71.7826L216.182 73.4097C216.235 73.4622 216.812 73.9871 217.941 75.0106C219.069 76.0342 220.513 77.2939 222.271 78.8423C223.242 79.6821 224.134 80.4432 224.922 81.0993C225.709 81.7554 226.417 82.359 227.047 82.9102C227.625 83.4088 228.045 83.75 228.36 83.9862C227.441 85.141 226.339 86.6631 225.053 88.579C224.895 88.8939 224.764 89.1038 224.685 89.1563Z" fill="url(#paint15_linear_73_193)"/>
<path d="M107.925 214.475C107.82 214.58 107.663 214.554 107.505 214.396C106.665 213.53 106.035 213.084 105.668 213.005C105.301 212.926 104.592 213.11 103.568 213.556C103.07 213.766 102.335 214.055 101.364 214.475C98.0834 215.84 92.6246 218.228 84.9612 221.64C83.8852 222.138 83.2816 222.322 83.1766 222.217C83.0454 222.059 83.0717 221.797 83.2816 221.43C83.7803 220.59 84.3052 219.592 84.8563 218.464C85.7486 216.706 86.9296 214.37 88.373 211.457C89.0291 210.171 89.9739 208.255 91.2074 205.709C91.8898 204.318 92.6509 202.822 93.5694 201.221C94.0681 200.355 93.9893 199.594 93.3594 198.912L92.5984 198.072C92.4146 197.862 92.3884 197.705 92.5459 197.573C92.6771 197.442 93.0445 197.678 93.5956 198.282L97.5061 202.534C97.6635 202.717 97.8735 202.954 98.1359 203.216C98.3984 203.505 98.6871 203.82 99.002 204.161L100.288 205.578C100.577 205.893 100.655 206.129 100.498 206.26C100.367 206.392 100.026 206.155 99.4744 205.604C98.5821 204.659 97.9784 204.318 97.716 204.581C97.6898 204.607 97.3748 205.158 96.7712 206.234C94.1205 211.037 92.0472 215.026 90.4988 218.228C91.2336 217.965 92.7296 217.335 94.9604 216.364C95.5377 216.102 96.9024 215.498 99.002 214.606C101.994 213.294 103.726 212.402 104.225 211.929C104.513 211.667 104.592 211.378 104.408 211.063C104.33 210.958 103.988 210.538 103.385 209.856C103.07 209.515 103.017 209.278 103.175 209.121C103.332 208.99 103.516 209.042 103.726 209.278L104.802 210.459L105.616 211.326L106.219 211.982C106.377 212.139 106.56 212.349 106.744 212.559C106.954 212.795 107.216 213.058 107.479 213.373L107.899 213.819C108.083 214.081 108.109 214.291 107.925 214.475Z" fill="url(#paint16_linear_73_193)"/>
<path d="M112.491 236.888C112.465 236.914 111.888 237.806 110.786 239.565C110.182 240.483 109.762 241.139 109.5 241.533C109.237 241.927 109.106 242.11 109.132 242.11C104.172 238.699 99.7629 235.838 95.8788 233.555L93.438 232.032C93.0969 231.822 92.9656 231.639 93.0444 231.481C93.1231 231.376 93.2018 231.324 93.2806 231.376C93.3855 231.403 93.7005 231.56 94.2254 231.849C95.1702 232.347 95.8263 232.4 96.1937 231.98C96.3774 231.744 96.5873 231.481 96.7711 231.166L105.93 216.522C106.639 215.367 107.033 214.737 107.085 214.606C107.269 214.291 107.295 214.003 107.19 213.793C107.085 213.556 106.77 213.294 106.219 212.953C105.615 212.585 105.379 212.297 105.484 212.139C105.615 211.956 105.93 212.008 106.455 212.349C106.98 212.69 107.741 213.137 108.686 213.714C112.281 215.866 115.195 217.651 117.425 219.094L119.394 220.327C119.814 220.59 120.365 220.879 121.021 221.22L119.315 224.527C118.79 225.603 118.449 226.232 118.291 226.469C118.16 226.652 118.003 226.705 117.819 226.574C117.635 226.442 117.662 226.127 117.898 225.576C118.554 224.133 118.633 222.821 118.108 221.666C117.583 220.485 116.454 219.356 114.696 218.254C114.145 217.913 113.2 217.362 111.862 216.601L106.534 225.13C108.66 226.469 110.103 227.177 110.838 227.203C111.599 227.23 112.465 226.652 113.515 225.419C114.066 224.763 114.434 224.5 114.617 224.632C114.801 224.737 114.775 224.973 114.565 225.314C114.355 225.655 113.882 226.364 113.148 227.387C112.911 227.755 112.57 228.227 112.203 228.857C111.153 230.51 110.392 231.796 109.919 232.662C109.867 232.794 109.788 232.951 109.683 233.108C109.526 233.345 109.368 233.397 109.211 233.292C109.08 233.213 109.027 233.108 109.027 233.003C109.027 232.899 109.185 232.531 109.447 231.954C110.103 230.458 110.366 229.434 110.234 228.883C110.103 228.332 109.421 227.676 108.214 226.915L106.245 225.681L100.183 235.418L102.046 236.573C104.198 237.859 105.537 238.62 106.035 238.856C106.665 239.145 107.348 239.276 108.109 239.276C108.843 239.197 109.421 238.987 109.893 238.646C110.366 238.331 111.074 237.622 112.019 236.573C112.255 236.31 112.439 236.232 112.57 236.31C112.701 236.415 112.675 236.599 112.491 236.888Z" fill="url(#paint17_linear_73_193)"/>
<path d="M142.122 227.833C142.095 227.938 141.99 227.991 141.833 227.964C141.675 227.938 141.072 227.833 140.074 227.597C139.497 227.466 139.13 227.492 138.972 227.702C138.841 227.807 138.631 228.516 138.316 229.775L137.293 233.607C136.61 236.153 135.692 239.486 134.589 243.58L133.067 249.17C132.962 249.537 132.831 249.721 132.674 249.669C132.437 249.59 131.335 247.359 129.367 242.924C127.398 238.488 125.273 233.45 123.016 227.833L122.36 230.274C122.123 231.114 121.94 231.822 121.782 232.452C121.625 233.082 121.52 233.45 121.467 233.581L118.685 243.816C118.554 244.288 118.633 244.603 118.895 244.787C119.315 245.102 119.84 245.312 120.444 245.496C121.179 245.706 121.572 245.863 121.625 245.994C121.651 246.021 121.651 246.073 121.625 246.126C121.572 246.309 121.389 246.336 121.047 246.257C120.837 246.204 120.68 246.152 120.549 246.099C119.236 245.706 118.423 245.443 118.108 245.364C117.347 245.155 116.323 244.918 115.064 244.603C114.434 244.446 114.171 244.393 114.276 244.42C113.935 244.341 113.804 244.21 113.856 244.026C113.909 243.869 114.408 243.895 115.405 244.079C116.56 244.288 117.242 244.288 117.478 244.079C117.636 243.921 117.898 243.16 118.292 241.743L121.94 228.227C122.307 226.836 122.517 225.996 122.543 225.707C122.674 224.71 122.491 223.897 121.966 223.293C121.572 222.847 120.732 222.401 119.42 222.007C119.079 221.902 118.922 221.745 118.974 221.561C119.027 221.351 119.21 221.298 119.525 221.377C119.656 221.403 120.129 221.561 120.916 221.823C121.31 221.955 121.887 222.112 122.674 222.348C124.302 222.794 125.614 223.109 126.664 223.319L134.196 241.323L137.739 228.253C137.87 227.728 137.896 227.361 137.739 227.177C137.581 226.993 137.24 226.81 136.689 226.626L135.298 226.18C135.036 226.075 134.931 225.97 134.957 225.839C135.009 225.655 135.219 225.629 135.613 225.734L136.348 225.944C136.479 225.97 136.689 226.049 137.004 226.127C137.293 226.206 137.529 226.285 137.765 226.337C139.97 226.941 141.282 227.308 141.649 227.413C142.017 227.518 142.174 227.676 142.122 227.833Z" fill="url(#paint18_linear_73_193)"/>
<path d="M159.915 232.794C159.915 232.977 159.836 233.056 159.679 233.082C159.417 233.082 159.18 232.662 158.97 231.796C158.524 230.064 157.921 228.909 157.186 228.306C156.451 227.702 155.27 227.413 153.695 227.44C153.092 227.466 152.541 227.466 152.094 227.466L152.593 248.199C152.619 248.776 152.803 249.117 153.092 249.275C153.38 249.432 154.194 249.537 155.506 249.616C155.769 249.642 155.9 249.721 155.9 249.905C155.9 250.141 155.716 250.246 155.349 250.246C155.27 250.246 155.112 250.246 154.824 250.22C154.483 250.194 154.194 250.194 153.958 250.22L150.441 250.194L144.641 250.508C144.326 250.508 144.169 250.43 144.169 250.246C144.169 250.115 144.221 250.036 144.3 250.01C144.379 249.984 144.772 249.957 145.428 249.905C146.688 249.826 147.344 249.511 147.423 248.96C147.449 248.671 147.423 246.336 147.318 242.005L146.977 227.545C146.714 227.545 146.426 227.545 146.084 227.571C144.274 227.623 142.961 227.991 142.148 228.673C141.334 229.355 140.809 230.563 140.599 232.269C140.468 233.266 140.284 233.765 140.022 233.765C139.812 233.765 139.707 233.633 139.707 233.371C139.707 233.187 139.733 232.557 139.786 231.481C139.917 229.251 139.996 227.728 140.022 226.889H140.521L143.014 226.836C143.093 226.836 143.88 226.836 145.376 226.836C146.898 226.836 148.814 226.81 151.15 226.757C152.436 226.731 153.617 226.679 154.64 226.652C155.664 226.6 156.608 226.574 157.448 226.574C158.209 226.547 158.76 226.521 159.154 226.469C159.259 227.938 159.469 229.802 159.81 232.085C159.889 232.452 159.915 232.689 159.915 232.794Z" fill="url(#paint19_linear_73_193)"/>
<path d="M177.945 220.695C177.997 220.852 177.656 221.062 176.921 221.325C176.029 221.64 175.504 221.954 175.399 222.296C175.373 222.401 175.373 222.611 175.452 222.899L179.835 236.73C181.462 241.874 179.808 245.207 174.927 246.755C172.407 247.543 170.229 247.412 168.34 246.309C166.922 245.496 165.768 243.606 164.849 240.693L160.912 228.201C160.702 227.518 160.44 227.125 160.178 227.046C159.915 226.967 159.18 227.072 158.026 227.335C157.789 227.387 157.632 227.335 157.579 227.177C157.527 226.993 157.684 226.836 158.078 226.705L158.34 226.626C158.524 226.573 158.708 226.521 158.839 226.469L160.86 225.839C162.776 225.261 164.193 224.815 165.085 224.5C166.292 224.107 166.765 223.975 166.529 224.054L167.211 223.844C167.578 223.739 167.788 223.765 167.867 224.002C167.92 224.185 167.631 224.395 166.949 224.605C166.004 224.92 165.531 225.235 165.584 225.602C165.61 225.865 165.663 226.101 165.741 226.311L169.599 238.488C170.15 240.247 170.544 241.349 170.754 241.821C171.358 243.186 172.066 244.078 172.932 244.498C173.982 245.023 175.163 245.076 176.449 244.682C177.919 244.21 178.864 243.396 179.257 242.215C179.73 240.798 179.52 238.593 178.575 235.628L175.189 224.894C175.137 224.684 175.058 224.448 174.953 224.133C174.848 223.818 174.796 223.634 174.769 223.582C174.586 223.03 174.323 222.689 173.93 222.637C173.667 222.584 173.247 222.637 172.617 222.847C171.83 223.057 171.41 223.057 171.331 222.821C171.279 222.637 171.41 222.506 171.699 222.427C172.014 222.322 172.512 222.191 173.142 222.033C173.772 221.876 174.271 221.718 174.586 221.64C174.612 221.64 174.769 221.535 175.111 221.377C175.478 221.272 175.819 221.167 176.108 221.062L176.895 220.826C177.499 220.511 177.866 220.485 177.945 220.695Z" fill="url(#paint20_linear_73_193)"/>
<path d="M206.236 227.518C206.945 228.568 206.63 229.565 205.265 230.51C203.533 231.691 201.775 232.085 200.016 231.717C198.625 231.429 197.549 230.825 196.788 229.959L194.925 227.833C193.718 226.495 192.694 225.707 191.776 225.471C190.857 225.235 189.886 225.497 188.784 226.285L193.167 232.688C194.19 234.184 194.741 234.972 194.846 235.077C195.056 235.392 195.345 235.523 195.686 235.47C196.027 235.418 196.578 235.129 197.313 234.631C197.759 234.316 198.048 234.263 198.153 234.421C198.258 234.578 198.206 234.735 197.969 234.867L195.24 236.73L194.794 237.045C194.453 237.281 194.138 237.491 193.849 237.701L191.828 239.092C191.645 239.223 191.435 239.381 191.172 239.538C190.962 239.669 190.831 239.774 190.778 239.801L189.492 240.693C189.23 240.877 189.046 240.903 188.968 240.772C188.863 240.614 189.178 240.273 189.939 239.696C190.542 239.223 190.831 238.803 190.752 238.462C190.726 238.278 190.464 237.885 190.017 237.229L180.045 222.689C179.388 221.718 178.969 221.141 178.811 220.983C178.654 220.826 178.444 220.773 178.155 220.826C177.814 220.905 177.341 221.115 176.764 221.535C176.344 221.823 176.082 221.876 175.977 221.692C175.898 221.561 175.924 221.43 176.055 221.272C176.187 221.115 176.633 220.8 177.368 220.301L177.866 219.96C178.207 219.724 178.522 219.514 178.864 219.278L179.782 218.648C179.808 218.648 179.992 218.49 180.359 218.254C180.727 218.018 181.042 217.782 181.383 217.572L183.01 216.443C185.635 214.632 187.577 213.609 188.81 213.373C189.781 213.189 190.726 213.268 191.618 213.609C192.511 213.95 193.245 214.527 193.77 215.315C195.004 217.126 194.978 219.094 193.692 221.246C193.114 222.191 192.091 223.293 190.621 224.605L190.7 224.789C192.826 223.529 194.689 223.031 196.264 223.372C197.838 223.687 199.439 224.841 201.066 226.836C202.378 228.411 203.323 229.329 203.927 229.513C204.53 229.723 205.003 229.697 205.344 229.46C205.633 229.277 205.711 229.093 205.607 228.935C205.554 228.857 205.37 228.83 205.082 228.857C204.767 228.883 204.53 228.752 204.373 228.516C204.032 228.017 204.137 227.571 204.688 227.177C205.292 226.757 205.79 226.862 206.236 227.518ZM189.388 218.175C187.734 215.761 185.949 215.21 184.034 216.522C183.404 216.942 183.168 217.414 183.299 217.939C183.378 218.254 184.034 219.33 185.267 221.115L188.469 225.786C189.939 224.789 190.752 223.713 190.91 222.506C191.015 221.272 190.516 219.855 189.388 218.175Z" fill="url(#paint21_linear_73_193)"/>
<path d="M217.574 206.916C217.6 206.943 218.414 207.625 220.015 208.964C220.854 209.672 221.432 210.171 221.799 210.486C222.167 210.801 222.324 210.932 222.324 210.932C218.309 215.42 214.923 219.435 212.168 222.978L210.357 225.209C210.094 225.524 209.911 225.629 209.779 225.524C209.674 225.445 209.648 225.366 209.701 225.261C209.753 225.156 209.937 224.868 210.278 224.395C210.908 223.529 211.039 222.873 210.672 222.453C210.462 222.243 210.225 222.007 209.937 221.771L196.578 210.827C195.529 209.961 194.951 209.488 194.82 209.436C194.531 209.226 194.269 209.147 194.033 209.226C193.796 209.305 193.482 209.567 193.088 210.066C192.642 210.617 192.327 210.827 192.169 210.696C191.986 210.564 192.091 210.25 192.511 209.751C192.904 209.278 193.455 208.596 194.138 207.704C196.71 204.397 198.862 201.746 200.594 199.699L202.063 197.915C202.378 197.521 202.746 197.022 203.139 196.419L206.21 198.545C207.207 199.201 207.811 199.621 208.021 199.804C208.205 199.962 208.205 200.119 208.073 200.277C207.916 200.46 207.601 200.382 207.102 200.067C205.764 199.227 204.478 198.991 203.244 199.358C202.011 199.726 200.751 200.723 199.439 202.324C199.045 202.822 198.363 203.688 197.444 204.922L205.239 211.299C206.84 209.357 207.706 208.019 207.837 207.284C207.968 206.549 207.496 205.578 206.42 204.423C205.843 203.793 205.633 203.4 205.764 203.216C205.895 203.059 206.105 203.111 206.446 203.374C206.761 203.636 207.391 204.187 208.336 205.053C208.651 205.342 209.097 205.709 209.648 206.182C211.17 207.415 212.325 208.334 213.139 208.937C213.244 209.016 213.401 209.095 213.558 209.226C213.768 209.41 213.821 209.567 213.69 209.725C213.585 209.856 213.48 209.908 213.375 209.856C213.27 209.83 212.929 209.646 212.378 209.305C210.987 208.465 210.016 208.071 209.438 208.124C208.887 208.176 208.126 208.78 207.234 209.882L205.764 211.693L214.635 218.963L216.025 217.257C217.574 215.288 218.492 214.055 218.807 213.609C219.175 213.031 219.385 212.349 219.49 211.588C219.49 210.853 219.358 210.25 219.096 209.751C218.834 209.252 218.23 208.465 217.285 207.363C217.075 207.1 216.997 206.89 217.101 206.785C217.128 206.654 217.311 206.68 217.574 206.916Z" fill="url(#paint22_linear_73_193)"/>
<path d="M63.1238 161.016L56.5627 161.646L53.361 167.367L50.7627 161.331L44.3066 160.045L49.2406 155.715L48.4533 149.18L54.122 152.539L60.1057 149.784L58.6623 156.187L63.1238 161.016Z" fill="url(#paint23_linear_73_193)"/>
<path d="M65.1185 133.223L58.5836 133.827L55.3556 139.575L52.7574 133.538L46.3013 132.252L51.2352 127.896L50.4741 121.361L56.1166 124.72L62.1004 121.965L60.6569 128.394L65.1185 133.223Z" fill="url(#paint24_linear_73_193)"/>
<path d="M251.768 161.016L245.233 161.646L242.005 167.367L239.407 161.331L232.951 160.045L237.885 155.715L237.124 149.18L242.766 152.539L248.75 149.784L247.307 156.187L251.768 161.016Z" fill="url(#paint25_linear_73_193)"/>
<path d="M251.768 133.223L245.233 133.827L242.005 139.575L239.407 133.538L232.951 132.252L237.885 127.896L237.124 121.361L242.766 124.72L248.75 121.965L247.307 128.394L251.768 133.223Z" fill="url(#paint26_linear_73_193)"/>
<path d="M66.2218 111.755L63.4662 109.105L59.7133 109.892L61.3666 106.454L59.4771 103.121L63.2825 103.646L65.8544 100.811L66.5368 104.564L70.0273 106.139L66.6418 107.95L66.2218 111.755Z" fill="url(#paint27_linear_73_193)"/>
<path d="M234.422 111.755L231.666 109.105L227.913 109.892L229.593 106.454L227.677 103.121L231.482 103.646L234.054 100.811L234.737 104.564L238.227 106.139L234.842 107.95L234.422 111.755Z" fill="url(#paint28_linear_73_193)"/>
<path d="M63.5712 192.798L60.8155 190.173L57.0626 190.935L58.716 187.497L56.8264 184.163L60.6318 184.688L63.2038 181.854L63.8861 185.607L67.3766 187.182L63.9911 188.992L63.5712 192.798Z" fill="url(#paint29_linear_73_193)"/>
<path d="M234.422 194.215L231.64 191.564L227.887 192.352L229.567 188.914L227.651 185.581L231.456 186.106L234.028 183.271L234.711 187.024L238.201 188.599L234.842 190.41L234.422 194.215Z" fill="url(#paint30_linear_73_193)"/>
<path d="M172.773 131.361C168.732 125.062 161.672 120.968 154.245 119.945C149.941 119.341 145.558 119.708 141.201 119.708C138.393 119.708 135.611 119.551 132.803 119.656C131.832 119.682 130.677 119.892 130.362 120.811C136.11 120.889 141.857 120.968 147.605 121.047C151.305 121.099 155.216 121.204 158.339 123.225C158.208 123.461 158.076 123.698 157.945 123.934C152.066 122.307 145.847 122.333 139.732 122.359C136.871 122.385 134.01 122.385 131.15 122.412C130.362 122.412 126.557 122.622 126.714 124.091C126.819 125.115 132.409 124.117 132.409 124.144C132.409 138.945 132.436 153.747 132.436 168.549C137.947 167.972 143.485 168.943 149.022 168.313C154.166 167.736 159.205 166.108 163.562 163.274C167.734 160.545 171.697 157.185 174.033 152.776C177.524 146.11 176.815 137.66 172.773 131.361ZM141.123 165.216H137.553L138.131 125.325L141.123 127.608V165.216ZM157.945 162.539C155.531 164.639 152.303 166.161 149.18 165.531C149.18 165.269 149.18 164.98 149.18 164.717C149.18 155.689 149.18 146.635 149.18 137.607C149.18 135.35 149.18 133.093 149.18 130.836C149.18 129.655 149.18 128.474 149.18 127.319C149.18 126.479 149.048 126.086 149.416 125.797C149.521 125.718 149.705 125.64 149.914 125.561C153.064 124.537 157.63 127.398 159.73 129.445C162.486 132.148 164.139 135.849 164.952 139.628C166.685 147.816 164.296 157.08 157.945 162.539Z" fill="url(#paint31_linear_73_193)"/>
<path d="M129.523 170.884L140.913 175.53L130.521 169.021C128.579 168.968 126.715 168.653 124.931 168.155C125.324 168.05 125.718 167.892 126.138 167.63C130.022 165.242 120.128 154.245 120.128 154.245C119.734 158.471 119.892 161.646 120.443 163.93C119.209 163.037 117.661 162.066 116.375 161.253C113.436 159.415 107.347 151.752 107.347 151.752C108.37 155.951 117.976 164.638 121.309 166.292C121.466 166.58 121.65 166.843 121.834 167.079C114.722 164.218 109.735 159.179 109.735 159.179C114.485 164.533 123.487 170.491 123.487 170.491L129.523 170.884Z" fill="url(#paint32_linear_73_193)"/>
<path d="M135.271 177.288L128.605 172.144L124.353 172.643L114.485 164.612C114.485 164.612 122.149 176.474 131.177 177.97L148.629 188.757L154.744 180.831C166.265 179.151 170.281 173.981 170.281 173.981L153.065 177.996L135.271 177.288ZM129.707 175.897L132.017 177.157L130.573 177.104L129.707 175.897Z" fill="url(#paint33_linear_73_193)"/>
<path d="M134.746 170.648C150.991 185.581 177.131 166.606 177.131 166.606C158.471 173.482 134.746 170.648 134.746 170.648Z" fill="url(#paint34_linear_73_193)"/>
<path d="M164.192 168.286C182.983 170.858 186.421 148.734 186.421 148.734C173.798 166.711 164.192 168.286 164.192 168.286Z" fill="url(#paint35_linear_73_193)"/>
<path d="M185.739 147.159C178.233 157.841 155.951 169.625 155.951 169.625C174.69 168.417 185.739 147.159 185.739 147.159Z" fill="url(#paint36_linear_73_193)"/>
<defs>
<linearGradient id="paint0_linear_73_193" x1="0.372941" y1="147.991" x2="295.629" y2="147.991" gradientUnits="userSpaceOnUse">
<stop stop-color="#E19D27"/>
<stop offset="0.371" stop-color="#FDE563"/>
<stop offset="0.6395" stop-color="#D18955"/>
<stop offset="0.7998" stop-color="#FDE563"/>
<stop offset="1" stop-color="#E19D27"/>
</linearGradient>
<linearGradient id="paint1_linear_73_193" x1="20.0637" y1="148.413" x2="275.939" y2="148.413" gradientUnits="userSpaceOnUse">
<stop stop-color="#E19D27"/>
<stop offset="0.371" stop-color="#FDE563"/>
<stop offset="0.6395" stop-color="#D18955"/>
<stop offset="0.7998" stop-color="#FDE563"/>
<stop offset="1" stop-color="#E19D27"/>
</linearGradient>
<linearGradient id="paint2_linear_73_193" x1="17.9679" y1="148.165" x2="278.031" y2="148.165" gradientUnits="userSpaceOnUse">
<stop stop-color="#E19D27"/>
<stop offset="0.371" stop-color="#FDE563"/>
<stop offset="0.6395" stop-color="#D18955"/>
<stop offset="0.7998" stop-color="#FDE563"/>
<stop offset="1" stop-color="#E19D27"/>
</linearGradient>
<linearGradient id="paint3_linear_73_193" x1="16.1423" y1="148.031" x2="279.859" y2="148.031" gradientUnits="userSpaceOnUse">
<stop stop-color="#E19D27"/>
<stop offset="0.371" stop-color="#FDE563"/>
<stop offset="0.6395" stop-color="#D18955"/>
<stop offset="0.7998" stop-color="#FDE563"/>
<stop offset="1" stop-color="#E19D27"/>
</linearGradient>
<linearGradient id="paint4_linear_73_193" x1="22.373" y1="148.411" x2="273.629" y2="148.411" gradientUnits="userSpaceOnUse">
<stop stop-color="#E19D27"/>
<stop offset="0.371" stop-color="#FDE563"/>
<stop offset="0.6395" stop-color="#D18955"/>
<stop offset="0.7998" stop-color="#FDE563"/>
<stop offset="1" stop-color="#E19D27"/>
</linearGradient>
<linearGradient id="paint5_linear_73_193" x1="89.3136" y1="150.237" x2="206.688" y2="150.237" gradientUnits="userSpaceOnUse">
<stop stop-color="#E19D27"/>
<stop offset="0.371" stop-color="#FDE563"/>
<stop offset="0.6395" stop-color="#D18955"/>
<stop offset="0.7998" stop-color="#FDE563"/>
<stop offset="1" stop-color="#E19D27"/>
</linearGradient>
<linearGradient id="paint6_linear_73_193" x1="92.4381" y1="150.363" x2="203.56" y2="150.363" gradientUnits="userSpaceOnUse">
<stop stop-color="#E19D27"/>
<stop offset="0.371" stop-color="#FDE563"/>
<stop offset="0.6395" stop-color="#D18955"/>
<stop offset="0.7998" stop-color="#FDE563"/>
<stop offset="1" stop-color="#E19D27"/>
</linearGradient>
<linearGradient id="paint7_linear_73_193" x1="76.5186" y1="149.285" x2="219.482" y2="149.285" gradientUnits="userSpaceOnUse">
<stop stop-color="#E19D27"/>
<stop offset="0.371" stop-color="#FDE563"/>
<stop offset="0.6395" stop-color="#D18955"/>
<stop offset="0.7998" stop-color="#FDE563"/>
<stop offset="1" stop-color="#E19D27"/>
</linearGradient>
<linearGradient id="paint8_linear_73_193" x1="78.2913" y1="149.506" x2="217.709" y2="149.506" gradientUnits="userSpaceOnUse">
<stop stop-color="#E19D27"/>
<stop offset="0.371" stop-color="#FDE563"/>
<stop offset="0.6395" stop-color="#D18955"/>
<stop offset="0.7998" stop-color="#FDE563"/>
<stop offset="1" stop-color="#E19D27"/>
</linearGradient>
<linearGradient id="paint9_linear_73_193" x1="77.8113" y1="80.4717" x2="105.419" y2="80.4717" gradientUnits="userSpaceOnUse">
<stop stop-color="#7D512C"/>
<stop offset="0.371" stop-color="#FDE563"/>
<stop offset="0.6395" stop-color="#D18955"/>
<stop offset="0.7898" stop-color="#D18955"/>
<stop offset="0.9935" stop-color="#7D512C"/>
</linearGradient>
<linearGradient id="paint10_linear_73_193" x1="102.315" y1="67.8548" x2="127.924" y2="67.8548" gradientUnits="userSpaceOnUse">
<stop stop-color="#7D512C"/>
<stop offset="0.371" stop-color="#FDE563"/>
<stop offset="0.6395" stop-color="#D18955"/>
<stop offset="0.7898" stop-color="#D18955"/>
<stop offset="0.9935" stop-color="#7D512C"/>
</linearGradient>
<linearGradient id="paint11_linear_73_193" x1="125.246" y1="63.4524" x2="146.454" y2="63.4524" gradientUnits="userSpaceOnUse">
<stop stop-color="#7D512C"/>
<stop offset="0.371" stop-color="#FDE563"/>
<stop offset="0.6395" stop-color="#D18955"/>
<stop offset="0.7898" stop-color="#D18955"/>
<stop offset="0.9935" stop-color="#7D512C"/>
</linearGradient>
<linearGradient id="paint12_linear_73_193" x1="146.107" y1="62.3527" x2="157.659" y2="62.3527" gradientUnits="userSpaceOnUse">
<stop stop-color="#7D512C"/>
<stop offset="0.371" stop-color="#FDE563"/>
<stop offset="0.6395" stop-color="#D18955"/>
<stop offset="0.7898" stop-color="#D18955"/>
<stop offset="0.9935" stop-color="#7D512C"/>
</linearGradient>
<linearGradient id="paint13_linear_73_193" x1="159.61" y1="64.9755" x2="180.865" y2="64.9755" gradientUnits="userSpaceOnUse">
<stop stop-color="#7D512C"/>
<stop offset="0.371" stop-color="#FDE563"/>
<stop offset="0.6395" stop-color="#D18955"/>
<stop offset="0.7898" stop-color="#D18955"/>
<stop offset="0.9935" stop-color="#7D512C"/>
</linearGradient>
<linearGradient id="paint14_linear_73_193" x1="177.525" y1="73.433" x2="210.052" y2="73.433" gradientUnits="userSpaceOnUse">
<stop stop-color="#7D512C"/>
<stop offset="0.371" stop-color="#FDE563"/>
<stop offset="0.6395" stop-color="#D18955"/>
<stop offset="0.7898" stop-color="#D18955"/>
<stop offset="0.9935" stop-color="#7D512C"/>
</linearGradient>
<linearGradient id="paint15_linear_73_193" x1="201.247" y1="85.3423" x2="228.412" y2="85.3423" gradientUnits="userSpaceOnUse">
<stop stop-color="#7D512C"/>
<stop offset="0.371" stop-color="#FDE563"/>
<stop offset="0.6395" stop-color="#D18955"/>
<stop offset="0.7898" stop-color="#D18955"/>
<stop offset="0.9935" stop-color="#7D512C"/>
</linearGradient>
<linearGradient id="paint16_linear_73_193" x1="83.0782" y1="209.91" x2="108.044" y2="209.91" gradientUnits="userSpaceOnUse">
<stop stop-color="#7D512C"/>
<stop offset="0.371" stop-color="#FDE563"/>
<stop offset="0.6395" stop-color="#D18955"/>
<stop offset="0.7898" stop-color="#D18955"/>
<stop offset="0.9935" stop-color="#7D512C"/>
</linearGradient>
<linearGradient id="paint17_linear_73_193" x1="93.0365" y1="227.066" x2="121.051" y2="227.066" gradientUnits="userSpaceOnUse">
<stop stop-color="#7D512C"/>
<stop offset="0.371" stop-color="#FDE563"/>
<stop offset="0.6395" stop-color="#D18955"/>
<stop offset="0.7898" stop-color="#D18955"/>
<stop offset="0.9935" stop-color="#7D512C"/>
</linearGradient>
<linearGradient id="paint18_linear_73_193" x1="113.843" y1="235.51" x2="142.131" y2="235.51" gradientUnits="userSpaceOnUse">
<stop stop-color="#7D512C"/>
<stop offset="0.371" stop-color="#FDE563"/>
<stop offset="0.6395" stop-color="#D18955"/>
<stop offset="0.7898" stop-color="#D18955"/>
<stop offset="0.9935" stop-color="#7D512C"/>
</linearGradient>
<linearGradient id="paint19_linear_73_193" x1="139.734" y1="238.485" x2="159.922" y2="238.485" gradientUnits="userSpaceOnUse">
<stop stop-color="#7D512C"/>
<stop offset="0.371" stop-color="#FDE563"/>
<stop offset="0.6395" stop-color="#D18955"/>
<stop offset="0.7898" stop-color="#D18955"/>
<stop offset="0.9935" stop-color="#7D512C"/>
</linearGradient>
<linearGradient id="paint20_linear_73_193" x1="157.531" y1="233.897" x2="180.425" y2="233.897" gradientUnits="userSpaceOnUse">
<stop stop-color="#7D512C"/>
<stop offset="0.371" stop-color="#FDE563"/>
<stop offset="0.6395" stop-color="#D18955"/>
<stop offset="0.7898" stop-color="#D18955"/>
<stop offset="0.9935" stop-color="#7D512C"/>
</linearGradient>
<linearGradient id="paint21_linear_73_193" x1="175.913" y1="227.02" x2="206.61" y2="227.02" gradientUnits="userSpaceOnUse">
<stop stop-color="#7D512C"/>
<stop offset="0.371" stop-color="#FDE563"/>
<stop offset="0.6395" stop-color="#D18955"/>
<stop offset="0.7898" stop-color="#D18955"/>
<stop offset="0.9935" stop-color="#7D512C"/>
</linearGradient>
<linearGradient id="paint22_linear_73_193" x1="192.046" y1="210.984" x2="222.314" y2="210.984" gradientUnits="userSpaceOnUse">
<stop stop-color="#7D512C"/>
<stop offset="0.371" stop-color="#FDE563"/>
<stop offset="0.6395" stop-color="#D18955"/>
<stop offset="0.7898" stop-color="#D18955"/>
<stop offset="0.9935" stop-color="#7D512C"/>
</linearGradient>
<linearGradient id="paint23_linear_73_193" x1="44.2985" y1="158.279" x2="63.1186" y2="158.279" gradientUnits="userSpaceOnUse">
<stop stop-color="#E19D27"/>
<stop offset="0.371" stop-color="#FDE563"/>
<stop offset="0.6395" stop-color="#D18955"/>
<stop offset="0.7998" stop-color="#FDE563"/>
<stop offset="1" stop-color="#E19D27"/>
</linearGradient>
<linearGradient id="paint24_linear_73_193" x1="46.3023" y1="130.472" x2="65.1224" y2="130.472" gradientUnits="userSpaceOnUse">
<stop stop-color="#E19D27"/>
<stop offset="0.371" stop-color="#FDE563"/>
<stop offset="0.6395" stop-color="#D18955"/>
<stop offset="0.7998" stop-color="#FDE563"/>
<stop offset="1" stop-color="#E19D27"/>
</linearGradient>
<linearGradient id="paint25_linear_73_193" x1="232.952" y1="158.279" x2="251.772" y2="158.279" gradientUnits="userSpaceOnUse">
<stop stop-color="#E19D27"/>
<stop offset="0.371" stop-color="#FDE563"/>
<stop offset="0.6395" stop-color="#D18955"/>
<stop offset="0.7998" stop-color="#FDE563"/>
<stop offset="1" stop-color="#E19D27"/>
</linearGradient>
<linearGradient id="paint26_linear_73_193" x1="232.952" y1="130.472" x2="251.772" y2="130.472" gradientUnits="userSpaceOnUse">
<stop stop-color="#E19D27"/>
<stop offset="0.371" stop-color="#FDE563"/>
<stop offset="0.6395" stop-color="#D18955"/>
<stop offset="0.7998" stop-color="#FDE563"/>
<stop offset="1" stop-color="#E19D27"/>
</linearGradient>
<linearGradient id="paint27_linear_73_193" x1="59.4757" y1="106.282" x2="70.0176" y2="106.282" gradientUnits="userSpaceOnUse">
<stop stop-color="#E19D27"/>
<stop offset="0.371" stop-color="#FDE563"/>
<stop offset="0.6395" stop-color="#D18955"/>
<stop offset="0.7998" stop-color="#FDE563"/>
<stop offset="1" stop-color="#E19D27"/>
</linearGradient>
<linearGradient id="paint28_linear_73_193" x1="227.683" y1="106.282" x2="238.224" y2="106.282" gradientUnits="userSpaceOnUse">
<stop stop-color="#E19D27"/>
<stop offset="0.371" stop-color="#FDE563"/>
<stop offset="0.6395" stop-color="#D18955"/>
<stop offset="0.7998" stop-color="#FDE563"/>
<stop offset="1" stop-color="#E19D27"/>
</linearGradient>
<linearGradient id="paint29_linear_73_193" x1="56.8293" y1="187.328" x2="67.3711" y2="187.328" gradientUnits="userSpaceOnUse">
<stop stop-color="#E19D27"/>
<stop offset="0.371" stop-color="#FDE563"/>
<stop offset="0.6395" stop-color="#D18955"/>
<stop offset="0.7998" stop-color="#FDE563"/>
<stop offset="1" stop-color="#E19D27"/>
</linearGradient>
<linearGradient id="paint30_linear_73_193" x1="227.661" y1="188.744" x2="238.202" y2="188.744" gradientUnits="userSpaceOnUse">
<stop stop-color="#E19D27"/>
<stop offset="0.371" stop-color="#FDE563"/>
<stop offset="0.6395" stop-color="#D18955"/>
<stop offset="0.7998" stop-color="#FDE563"/>
<stop offset="1" stop-color="#E19D27"/>
</linearGradient>
<linearGradient id="paint31_linear_73_193" x1="126.696" y1="144.043" x2="176.274" y2="144.043" gradientUnits="userSpaceOnUse">
<stop stop-color="#F6AB59"/>
<stop offset="0.2153" stop-color="#FFF063"/>
<stop offset="0.7313" stop-color="#FFF063"/>
<stop offset="0.991" stop-color="#F6AB59"/>
</linearGradient>
<linearGradient id="paint32_linear_73_193" x1="107.349" y1="163.656" x2="140.931" y2="163.656" gradientUnits="userSpaceOnUse">
<stop stop-color="#7D512C"/>
<stop offset="0.371" stop-color="#FDE563"/>
<stop offset="0.6395" stop-color="#D18955"/>
<stop offset="0.7898" stop-color="#FFF200"/>
<stop offset="0.9935" stop-color="#7D512C"/>
</linearGradient>
<linearGradient id="paint33_linear_73_193" x1="114.491" y1="176.698" x2="170.293" y2="176.698" gradientUnits="userSpaceOnUse">
<stop stop-color="#7D512C"/>
<stop offset="0.371" stop-color="#FDE563"/>
<stop offset="0.6395" stop-color="#D18955"/>
<stop offset="0.7898" stop-color="#D18955"/>
<stop offset="0.9935" stop-color="#7D512C"/>
</linearGradient>
<linearGradient id="paint34_linear_73_193" x1="134.751" y1="171.492" x2="177.143" y2="171.492" gradientUnits="userSpaceOnUse">
<stop stop-color="#7D512C"/>
<stop offset="0.371" stop-color="#FDE563"/>
<stop offset="0.6395" stop-color="#D18955"/>
<stop offset="0.7898" stop-color="#D18955"/>
<stop offset="0.9935" stop-color="#7D512C"/>
</linearGradient>
<linearGradient id="paint35_linear_73_193" x1="164.195" y1="158.63" x2="186.415" y2="158.63" gradientUnits="userSpaceOnUse">
<stop stop-color="#7D512C"/>
<stop offset="0.371" stop-color="#FDE563"/>
<stop offset="0.6395" stop-color="#D18955"/>
<stop offset="0.7898" stop-color="#D18955"/>
<stop offset="0.9935" stop-color="#7D512C"/>
</linearGradient>
<linearGradient id="paint36_linear_73_193" x1="155.947" y1="158.404" x2="185.747" y2="158.404" gradientUnits="userSpaceOnUse">
<stop stop-color="#7D512C"/>
<stop offset="0.371" stop-color="#FDE563"/>
<stop offset="0.6395" stop-color="#D18955"/>
<stop offset="0.7898" stop-color="#D18955"/>
<stop offset="0.9935" stop-color="#7D512C"/>
</linearGradient>
</defs>
</svg>
